# xmcd CD database file
#
# Track frame offsets:
#	150
#	5665
#	17137
#	35883
#	46111
#	56023
#	71270
#	83281
#	92263
#	101865
#	110968
#	122737
#	141616
#	150586
#	158546
#	167251
#	177796
#	187473
#	205628
#	218485
#	227513
#	238742
#	248294
#	255762
#	265834
#	272371
#	283017
#	292562
#
# Disc length: 4020 seconds
#
# Revision: 1
# Processed by: cddbd v1.5.2PL0 Copyright (c) Steve Scherf et al.
# Submitted via: CDex 1.70beta2
#
DISCID=6c0fb21c
DTITLE=Kendor and Doug Beach - Jazz Charts Volume 20 CD1
DYEAR=2000
DGENRE=Jazz
TTITLE0=Introduction
TTITLE1=Ain't Nothin' Nu
TTITLE2=Lock 'n' Load
TTITLE3=Los Baujos de Cisano
TTITLE4=Badda Bing, Badda Bang
TTITLE5=Chicago Bound
TTITLE6=Linebacker
TTITLE7=Long in the Tooth
TTITLE8=PHB
TTITLE9=El Caborojeno
TTITLE10=Chant
TTITLE11=Augusta Nights
TTITLE12=One for Monterey
TTITLE13=Chrisamba
TTITLE14=One for the Duke
TTITLE15=No Looking Back
TTITLE16=Message from Art
TTITLE17=Critical Mass
TTITLE18=Riverscape
TTITLE19=Betwixt and Between
TTITLE20=Loop 360
TTITLE21=No Clam Zone
TTITLE22=Red Rocket
TTITLE23=Swing Madness
TTITLE24=Jump-Start
TTITLE25=Zsa Zsa Queen
TTITLE26=Fourth Quarter
TTITLE27=Toss and Turn
EXTD=YEAR: 2000
EXTT0=
EXTT1=
EXTT2=
EXTT3=
EXTT4=
EXTT5=
EXTT6=
EXTT7=
EXTT8=
EXTT9=
EXTT10=
EXTT11=
EXTT12=
EXTT13=
EXTT14=
EXTT15=
EXTT16=
EXTT17=
EXTT18=
EXTT19=
EXTT20=
EXTT21=
EXTT22=
EXTT23=
EXTT24=
EXTT25=
EXTT26=
EXTT27=
PLAYORDER=
